<svg width="24" height="24" viewBox="0 0 24 24" fill="none" xmlns="http://www.w3.org/2000/svg">
<path d="M12 6C8.16094 6 5.17031 8.2875 1.5 12C4.65938 15.1734 7.3125 18 12 18C16.6828 18 20.1281 14.4187 22.5 12.0656C20.0719 9.30937 16.6313 6 12 6ZM12 16.2797C9.68437 16.2797 7.8 14.3578 7.8 12C7.8 9.6375 9.68437 7.72031 12 7.72031C14.3156 7.72031 16.2 9.64219 16.2 12C16.2 14.3625 14.3156 16.2797 12 16.2797Z" fill="white"/>
<path d="M12 10.5C12 10.1297 12.136 9.79221 12.3563 9.52971C12.2391 9.51096 12.1219 9.50159 12 9.50159C10.65 9.50159 9.54846 10.6219 9.54846 12C9.54846 13.3781 10.65 14.4985 12 14.4985C13.35 14.4985 14.4516 13.3781 14.4516 12C14.4516 11.8922 14.4422 11.7844 14.4328 11.6766C14.175 11.8782 13.8563 12 13.5047 12C12.6703 12 12 11.3297 12 10.5Z" fill="white"/>
</svg>
