<svg width="24" height="24" viewBox="0 0 24 24" fill="none" xmlns="http://www.w3.org/2000/svg">
<path d="M14.489 4.5375L14.3765 4.50469C14.203 4.45781 14.0249 4.41094 13.8233 4.36875C13.7437 4.35 13.6593 4.33594 13.5749 4.31719C13.4437 4.29375 13.3124 4.275 13.1765 4.26094C13.0546 4.24219 12.928 4.22813 12.8062 4.21875L12.8015 1.5L7.97803 5.71875L12.8202 9.91875L12.8108 6.94687C12.8483 6.95156 12.8858 6.95156 12.9187 6.96094C13.0546 6.97969 13.1905 7.00781 13.3218 7.03594C13.514 7.08281 13.6968 7.13438 13.8749 7.2C13.978 7.2375 14.0812 7.275 14.1796 7.31719C14.3812 7.40625 14.578 7.50937 14.7702 7.62656L14.8265 7.65937C14.8733 7.6875 14.9202 7.71562 14.9671 7.74375C15.1687 7.87969 15.3608 8.03437 15.553 8.2125L15.6046 8.25469C15.628 8.27344 15.6468 8.29219 15.6655 8.30625C15.853 8.49375 16.0265 8.69531 16.1858 8.92031L16.2187 8.95781C16.2327 8.97188 16.2421 8.98594 16.2562 9.00469C16.3921 9.20156 16.5233 9.43125 16.6499 9.70312C16.6593 9.72188 16.6687 9.74062 16.678 9.75937C16.6874 9.77344 16.6968 9.79219 16.7015 9.81094C16.7952 10.0219 16.8702 10.2609 16.9452 10.5609C16.9499 10.5844 16.9593 10.6125 16.9687 10.6359C16.9733 10.6547 16.9827 10.6734 16.9874 10.7016C17.053 11.0063 17.0858 11.325 17.0858 11.6484C17.0905 12.6703 16.7624 13.65 16.1343 14.475L15.8765 14.8125L17.9108 16.65L18.239 16.2469C19.3077 14.9156 19.8702 13.3266 19.8655 11.6391C19.8655 8.3625 17.6999 5.50781 14.489 4.5375Z" fill="white"/>
<path d="M11.189 17.0578C11.1515 17.0531 11.114 17.0531 11.0765 17.0438C10.9406 17.025 10.8046 16.9969 10.6734 16.9688C10.4906 16.9266 10.3078 16.8703 10.1203 16.8047C10.0171 16.7672 9.91402 16.7297 9.81558 16.6875C9.6187 16.5984 9.42183 16.4953 9.22496 16.3781L9.15933 16.3406C9.11714 16.3125 9.07027 16.2891 9.02808 16.2609C8.82652 16.125 8.63433 15.9703 8.44214 15.7922L8.39058 15.75C8.36714 15.7312 8.34839 15.7125 8.32964 15.6984C8.14683 15.5203 7.97808 15.3187 7.80933 15.0891C7.79996 15.075 7.78589 15.0562 7.77183 15.0422C7.76246 15.0281 7.74839 15.0188 7.73902 15C7.59839 14.7984 7.47183 14.5688 7.34527 14.3016C7.33589 14.2781 7.32183 14.2547 7.31246 14.2359C7.30308 14.2219 7.29371 14.2078 7.28902 14.1937C7.19996 13.9875 7.12027 13.7531 7.04527 13.4437C7.04058 13.4156 7.03121 13.3922 7.02183 13.3688C7.01714 13.35 7.00777 13.3312 7.00308 13.3031C6.93746 12.9984 6.90464 12.6844 6.89996 12.3609C6.89527 11.3344 7.22808 10.3594 7.85152 9.53437L8.10933 9.19687L6.07496 7.35938L5.74683 7.7625C4.67808 9.08906 4.11558 10.6828 4.12027 12.3703C4.12496 15.6469 6.29058 18.5016 9.50621 19.4719L9.61871 19.5047C9.79214 19.5516 9.97027 19.5984 10.1718 19.6406C10.2515 19.6594 10.3359 19.6781 10.4203 19.6922C10.5515 19.7156 10.6875 19.7344 10.8187 19.7484C10.9453 19.7672 11.0671 19.7766 11.189 19.7906L11.1937 22.5094L16.0171 18.2906L11.175 14.0906L11.189 17.0578Z" fill="white"/>
</svg>
