<svg width="80" height="80" viewBox="0 0 80 80" fill="none" xmlns="http://www.w3.org/2000/svg">
<rect x="1.5" y="1.5" width="77" height="77" rx="14.5" stroke="#61DAFB" stroke-width="3"/>
<path d="M12.716 18.308C12.716 16.184 11.528 14.384 9.944 13.016L10.052 12.656C11.06 12.548 12.788 12.584 14.048 13.088C16.136 13.952 18.44 16.184 18.44 17.948C18.44 19.784 16.208 21.656 16.208 26.624C16.208 29 17.612 30.656 18.584 31.016C19.124 31.232 19.664 31.196 20.096 30.656C21.356 28.964 22.688 26.804 24.056 24.32L24.704 24.608C23.912 27.596 23.3 30.692 23.336 32.024C23.408 34.508 23.984 34.292 23.984 35.624C23.984 37.604 21.896 38.576 19.232 37.496C16.28 36.272 13.184 32.96 12.608 27.74C12.284 24.752 12.716 21.224 12.716 18.308ZM29.6 16.436L29.708 15.968C33.704 15.968 36.044 17.228 38.42 19.352C40.688 21.332 41.624 24.104 41.624 27.056C41.624 29.756 40.724 31.304 38.564 31.304C37.7 31.304 36.728 30.908 36.368 29.864C35.864 28.352 36.188 26.948 35.36 23.672C34.64 20.756 32.696 17.912 29.6 16.436Z" fill="#61DAFB"/>
<path d="M56.788 45.148L56.752 44.608C58.948 43.744 61.18 43.78 62.656 44.176C65.248 44.86 66.976 46.588 66.976 48.892C66.976 50.26 66.544 51.268 65.176 51.268C63.448 51.268 62.332 49.9 60.1 49.9C59.164 49.9 58.12 50.26 57.724 51.016C57.328 51.772 57.544 53.068 57.796 54.508C58.156 56.524 59.308 60.808 59.308 64.408C59.308 67.72 56.68 69.412 52.324 69.412C48.22 69.412 45.7 67.288 45.7 64.336C45.7 61.348 48.544 58.324 54.052 58.324C58.084 58.324 60.712 59.368 62.692 60.34C65.248 61.6 67.264 63.328 67.264 65.308C67.264 67.072 66.184 67.72 65.212 67.72C63.916 67.72 63.376 66.532 61.648 65.056C59.668 63.328 56.536 61.096 51.532 61.096C48.76 61.096 47.608 62.428 47.608 63.508C47.608 64.66 48.472 65.488 50.92 65.488C53.152 65.488 54.916 64.624 54.916 62.572C54.952 60.916 54.844 57.892 54.844 55.804C54.844 53.428 55.168 51.7 56.176 50.404C57.688 48.496 59.596 47.74 60.676 47.128C60.568 46.876 60.388 46.624 60.172 46.408C59.488 45.796 58.3 45.328 56.788 45.148ZM36.772 42.484C38.284 43.564 39.58 44.5 41.812 44.5C43.612 44.5 46.168 43.924 47.392 43.6C51.424 42.52 52.612 41.548 53.152 41.548C54.016 41.548 55.276 42.16 55.276 43.6C55.276 44.5 54.952 44.932 54.232 45.436C51.784 47.092 45.628 48.28 41.812 48.28C38.644 48.28 37.204 47.416 36.304 42.7L36.772 42.484ZM43.18 38.776V38.272C43.9 37.876 45.376 37.408 46.528 37.408C48.184 37.408 49.48 37.912 50.272 38.56C51.208 39.28 50.416 41.044 49.12 44.644C48.4 46.624 46.024 55.444 42.496 61.276C41.38 63.04 40.552 64.192 39.364 64.192C37.852 64.192 36.988 62.752 36.988 61.24C36.988 60.196 37.24 59.476 37.996 58.576C40.66 55.444 43 51.808 44.584 46.876C45.304 44.68 45.664 43.06 45.664 41.584C45.664 40.828 45.304 40.288 44.692 39.748C44.08 39.208 43.468 38.92 43.18 38.776Z" fill="#61DAFB"/>
</svg>
